<?xml version="1.0" standalone="no"?>
<!DOCTYPE svg PUBLIC "-//W3C//DTD SVG 20010904//EN"
 "http://www.w3.org/TR/2001/REC-SVG-20010904/DTD/svg10.dtd">
<svg version="1.0" xmlns="http://www.w3.org/2000/svg"
 width="1659.000000pt" height="382.000000pt" viewBox="0 0 1659.000000 382.000000"
 preserveAspectRatio="xMidYMid meet">

<g transform="translate(0.000000,382.000000) scale(0.100000,-0.100000)"
fill="#000000" stroke="none">
<path d="M10460 3281 l0 -520 -52 56 c-331 350 -993 376 -1424 55 -382 -284
-554 -803 -430 -1294 105 -414 408 -714 834 -825 120 -31 344 -42 473 -23 236
34 460 153 584 310 22 27 43 50 47 50 5 0 8 -70 8 -155 l0 -155 195 0 195 0 0
1510 0 1510 -215 0 -215 0 0 -519z m-535 -596 c250 -69 441 -251 524 -500 77
-232 62 -448 -46 -658 -38 -75 -65 -110 -143 -188 -81 -82 -109 -103 -190
-142 -128 -64 -226 -87 -360 -87 -339 0 -619 211 -733 553 -29 86 -31 102 -31
237 -1 121 3 158 22 225 86 301 296 503 592 570 82 19 280 13 365 -10z"/>
<path d="M16140 2290 l0 -1510 215 0 215 0 0 1510 0 1510 -215 0 -215 0 0
-1510z"/>
<path d="M430 3395 l0 -365 -205 0 -205 0 0 -195 0 -195 194 0 195 0 4 -647
c5 -784 8 -802 114 -965 70 -107 199 -196 358 -250 63 -21 88 -23 245 -23 112
0 195 5 230 13 97 24 183 54 253 89 l67 33 0 200 c0 110 -3 200 -7 200 -4 0
-41 -18 -83 -39 -98 -51 -217 -88 -327 -101 -179 -23 -290 20 -359 136 -50 86
-54 131 -54 767 l0 587 355 0 355 0 0 195 0 195 -355 0 -355 0 0 365 0 365
-210 0 -210 0 0 -365z"/>
<path d="M4642 3090 c-440 -62 -798 -362 -940 -785 -174 -521 21 -1100 472
-1400 180 -120 348 -173 573 -182 262 -10 470 48 690 193 134 89 286 255 353
385 l19 36 -227 6 -226 5 -63 -58 c-247 -226 -669 -241 -931 -33 -75 59 -123
112 -182 201 -46 68 -110 212 -110 247 0 13 102 15 934 15 l933 0 7 53 c16
135 0 326 -39 476 -108 405 -448 728 -865 822 -98 22 -306 32 -398 19z m353
-410 c132 -41 222 -96 320 -195 118 -118 180 -234 203 -380 l9 -55 -733 0
-732 0 5 43 c8 62 50 184 86 247 69 121 225 255 364 314 143 60 335 71 478 26z"/>
<path d="M7175 3093 c-204 -25 -369 -104 -489 -234 l-56 -60 0 120 0 121 -200
0 -200 0 0 -1130 0 -1130 215 0 214 0 3 713 c4 709 4 712 26 787 68 222 205
364 399 414 80 21 256 21 337 0 186 -48 305 -179 362 -399 16 -64 18 -136 21
-792 l4 -723 214 0 215 0 0 708 c0 703 -5 823 -36 947 -81 322 -307 549 -626
629 -122 31 -293 43 -403 29z"/>
<path d="M14415 3089 c-226 -29 -458 -129 -637 -275 -182 -150 -324 -371 -385
-601 -35 -132 -43 -364 -18 -498 47 -256 166 -477 350 -654 235 -225 525 -341
856 -341 866 0 1462 883 1120 1661 -212 484 -745 777 -1286 708z m360 -403
c87 -23 230 -97 302 -156 120 -97 215 -242 265 -400 20 -64 23 -96 23 -220 0
-124 -3 -156 -23 -220 -111 -352 -410 -580 -764 -580 -141 0 -229 20 -353 80
-166 81 -282 193 -365 351 -66 127 -85 211 -84 374 0 131 2 146 33 235 17 52
50 126 73 164 52 89 163 204 252 263 76 51 213 107 298 122 74 14 271 6 343
-13z"/>
<path d="M2932 3069 c-165 -25 -320 -127 -420 -276 -19 -29 -37 -53 -39 -53
-2 0 -3 66 -2 148 l2 147 -219 0 -219 0 -3 -1122 -2 -1123 220 0 220 0 0 623
c1 671 3 707 54 841 38 100 81 170 148 241 160 172 342 209 538 110 63 -31
166 -103 194 -134 11 -11 24 -21 30 -21 10 0 222 349 228 375 4 16 -129 111
-222 159 -128 66 -206 87 -335 91 -60 2 -138 -1 -173 -6z"/>
<path d="M11110 3034 c0 -4 200 -500 445 -1103 245 -604 445 -1103 445 -1109
0 -7 -72 -188 -160 -402 -88 -214 -160 -392 -160 -395 0 -3 99 -4 221 -3 l220
3 616 1485 c338 817 619 1495 624 1508 l9 22 -232 -2 -231 -3 -337 -867 c-185
-477 -339 -870 -341 -873 -3 -2 -154 388 -336 868 l-330 872 -227 3 c-124 1
-226 -1 -226 -4z"/>
</g>
</svg>
